<?xml version="1.0" standalone="no"?>
<!DOCTYPE svg PUBLIC "-//W3C//DTD SVG 20010904//EN"
 "http://www.w3.org/TR/2001/REC-SVG-20010904/DTD/svg10.dtd">
<svg version="1.0" xmlns="http://www.w3.org/2000/svg"
 width="500.000000pt" height="500.000000pt" viewBox="0 0 500.000000 500.000000"
 preserveAspectRatio="xMidYMid meet">
<metadata>
Created by potrace 1.14, written by Peter Selinger 2001-2017
</metadata>
<g transform="translate(0.000000,500.000000) scale(0.100000,-0.100000)"
fill="#000000" stroke="none">
<path d="M621 3375 l-1 -65 38 -1 c20 -1 49 0 65 1 l27 2 0 -806 0 -806 -47 1
c-85 2 -80 6 -81 -66 l0 -65 204 0 204 0 0 68 0 67 -65 -2 -65 -2 1 612 1 612
226 -677 226 -678 71 0 70 0 209 628 c115 345 217 644 226 666 15 36 16 1 15
-560 l0 -599 -50 -2 c-27 0 -56 -2 -62 -2 -9 -1 -13 -21 -13 -66 l0 -65 290 0
290 0 0 65 c0 72 4 70 -92 66 l-38 -1 0 806 0 805 53 -1 c28 -1 58 -1 65 -1 8
1 12 21 12 66 l0 65 -222 -2 -221 -3 -217 -650 c-119 -357 -219 -656 -221
-663 -8 -24 -23 19 -209 588 -100 305 -196 594 -212 643 l-31 87 -222 0 -223
0 -1 -65z"/>
<path d="M2599 3403 c-1 -46 2 -87 7 -92 2 -2 30 -3 62 -2 l59 2 1 -806 0
-806 -64 4 -64 3 -1 -33 c0 -18 -1 -48 -2 -65 l-1 -33 206 -3 206 -2 -2 67 -2
67 -62 -2 c-34 -1 -62 2 -63 6 -4 26 -3 1202 1 1202 3 0 103 -296 223 -658
120 -362 222 -664 226 -671 5 -8 30 -11 76 -9 l68 3 221 663 c121 364 223 662
226 662 4 0 4 -1055 1 -1183 -1 -15 -10 -17 -61 -15 -48 2 -60 0 -61 -12 -1
-21 -1 -92 0 -107 1 -10 66 -13 289 -13 l289 0 -1 59 c-1 33 -5 63 -8 67 -4 4
-33 7 -65 8 l-57 1 -1 785 c0 432 1 793 4 803 3 16 13 18 65 16 l61 -3 2 67 1
67 -222 0 -222 0 -223 -671 -223 -671 -107 323 c-59 178 -158 480 -221 672
l-114 347 -223 0 -223 0 -1 -37z"/>
</g>
</svg>
